PathFileType	4	(X/Y/Z)	./resultDataOpenSim/trcMotMarkerGrf/sub06/qtm-15-08.trc
DataRate	CameraRate	NumFrames	NumMarkers	Units	OrigDataRate	OrigDataStartFrame	OrigNumFrames
250.000000	250.000000	7	24	m	250.000000	305	487
Frame#	Time	L.Toe.Tip			R.Toe.Tip			L.Ankle.Lat			R.Ankle.Lat			L.Ankle.Med			R.Ankle.Med			L.Heel			R.Heel			L.Knee.Lat			R.Knee.Lat			L.Knee.Med			R.Knee.Med			L.Thigh.Upper			R.Thigh.Upper			L.ASIS			R.ASIS			V.Sacral			L.Acromium			R.Acromium			C7			L.Elbow			R.Elbow			L.Wrist.Lat			R.Wrist.Lat
		X1	Y1	Z1	X2	Y2	Z2	X3	Y3	Z3	X4	Y4	Z4	X5	Y5	Z5	X6	Y6	Z6	X7	Y7	Z7	X8	Y8	Z8	X9	Y9	Z9	X10	Y10	Z10	X11	Y11	Z11	X12	Y12	Z12	X13	Y13	Z13	X14	Y14	Z14	X15	Y15	Z15	X16	Y16	Z16	X17	Y17	Z17	X18	Y18	Z18	X19	Y19	Z19	X20	Y20	Z20	X21	Y21	Z21	X22	Y22	Z22	X23	Y23	Z23	X24	Y24	Z24

305	1.216	0.25566828	0.055702497	-0.0980356	0.97761819	0.035229639	-0.012054269	0.28329406	0.18582025	-0.12695231	0.84273016	0.059044082	0.021391285	0.3101821	0.18451217	-0.044285049	0.85717202	0.081266826	-0.066816706	0.25121625	0.24817122	-0.070010813	0.78309104	0.040386155	-0.033896897	0.63280815	0.30972189	-0.18946369	0.92908972	0.42723678	0.068295348	0.64575626	0.29767577	-0.067583604	0.88980074	0.41950292	-0.053074484	0.61535903	0.6996274	-0.17888288	0.73253886	0.74073235	0.14936325	0.70353366	0.74884778	-0.16081493	0.78883107	0.7783363	0.06773119	0.57296009	0.85313854	0.0079766805	0.79474308	1.252634	-0.1797269	0.77608473	1.1962719	0.17114579	0.71763395	1.2787903	-0.0029799106	0.84950308	0.93170807	-0.26723093	0.55700728	0.97958822	0.20954553	1.0812347	0.93401083	-0.16939083	0.52176689	0.76568565	0.31972021
306	1.22	0.26735128	0.062619374	-0.098865433	0.97755771	0.035228613	-0.011856434	0.29565549	0.19218179	-0.12806761	0.8425152	0.059151407	0.021545268	0.32225168	0.19118851	-0.045524402	0.85725613	0.081445583	-0.066540694	0.26362637	0.25524283	-0.071521674	0.78307862	0.040453196	-0.033865168	0.64568889	0.31204381	-0.19086947	0.9312603	0.42701939	0.069235447	0.6584967	0.29994	-0.068606177	0.89143045	0.41966654	-0.051546755	0.622414	0.7021832	-0.17859014	0.73714904	0.74235105	0.15012229	0.71013635	0.75165516	-0.16022697	0.79439969	0.78010398	0.069154488	0.57879043	0.85568348	0.0083619926	0.8003609	1.2549382	-0.18003731	0.78256399	1.1987305	0.1708215	0.7232654	1.2810171	-0.0023884575	0.85246012	0.93336441	-0.26686857	0.5655881	0.97912147	0.21022257	1.0844622	0.93127321	-0.16968974	0.53654578	0.76355646	0.31969267
307	1.224	0.27915934	0.069381709	-0.099550433	0.97751195	0.03522307	-0.011677548	0.30812662	0.19841511	-0.12926446	0.84242362	0.059154131	0.021688226	0.33446894	0.19780962	-0.046836762	0.85735181	0.081615455	-0.066293246	0.27615891	0.26219662	-0.073160967	0.78307696	0.040528989	-0.03384795	0.65856905	0.31461639	-0.1921978	0.93331707	0.42697036	0.0702647	0.67124228	0.30244416	-0.069646557	0.89296888	0.41997608	-0.050043711	0.62946471	0.70482269	-0.17834686	0.74157152	0.74408597	0.15096662	0.71671195	0.75449822	-0.15960899	0.79990849	0.78202259	0.07057926	0.58476272	0.8582955	0.0085288754	0.80593055	1.2573771	-0.18035871	0.78892759	1.2013245	0.17050515	0.72882462	1.2833464	-0.0013764233	0.85529644	0.93517926	-0.26667189	0.57411837	0.9788207	0.21097465	1.087488	0.92847041	-0.17012008	0.55152998	0.76166907	0.3196277
308	1.228	0.29108397	0.07597495	-0.10015313	0.97746684	0.03521662	-0.011518707	0.32063298	0.20458117	-0.13054032	0.84243514	0.059051757	0.021819075	0.34680209	0.20434422	-0.048185476	0.85745295	0.081783686	-0.066065501	0.28878701	0.2690135	-0.074909953	0.7830736	0.040621527	-0.033839531	0.67145087	0.31742992	-0.19343731	0.93529637	0.42699223	0.071399728	0.68397893	0.30517329	-0.070724002	0.89443406	0.420369	-0.048638062	0.63650899	0.70755034	-0.17817198	0.74589961	0.74594955	0.15185862	0.72325957	0.7573655	-0.15896311	0.8053566	0.78409442	0.072002958	0.59087692	0.86094062	0.0084494853	0.81145179	1.2599458	-0.18069183	0.79516832	1.2040419	0.17020028	0.73440386	1.2858206	-0.00030743616	0.85800271	0.93714889	-0.26667887	0.58259254	0.97867627	0.21179755	1.0903005	0.92560673	-0.17068252	0.56665542	0.76002279	0.31950793
309	1.232	0.30311843	0.082399892	-0.1007154	0.97741194	0.035212663	-0.011372099	0.33311844	0.21076809	-0.13185696	0.84248926	0.058884215	0.021953276	0.35922649	0.21077392	-0.049557991	0.8575435	0.081960653	-0.065836848	0.30148007	0.27567505	-0.076746935	0.78305813	0.040734489	-0.033826082	0.68436085	0.3204674	-0.19458175	0.93721159	0.42699862	0.072618343	0.69665793	0.30812966	-0.071775179	0.89589721	0.42079435	-0.047373962	0.64354601	0.71036652	-0.17808128	0.75016345	0.7479294	0.15273693	0.72979194	0.76025716	-0.15829138	0.81073629	0.7863126	0.073417463	0.59703398	0.86361759	0.0081945981	0.81692333	1.2626363	-0.18102933	0.80129083	1.2068767	0.16991211	0.74005716	1.2884783	0.00042870151	0.86058486	0.93926072	-0.26688074	0.59099723	0.97867587	0.2126802	1.0928974	0.9226918	-0.17138445	0.5819344	0.75863178	0.31932323
310	1.236	0.31525591	0.088659469	-0.10125461	0.97734313	0.035211403	-0.011225465	0.34555029	0.21701802	-0.13314527	0.84253049	0.058699143	0.022104729	0.37172371	0.21708569	-0.050951653	0.8576084	0.082156732	-0.065587908	0.31420701	0.28216244	-0.078646899	0.78302547	0.040861883	-0.033793569	0.69731817	0.32371004	-0.19562477	0.93900979	0.42696096	0.07386765	0.70923975	0.3113184	-0.072712618	0.89744176	0.4212172	-0.046272881	0.65058078	0.71326355	-0.17805751	0.75433441	0.74999487	0.15359229	0.73632819	0.76317509	-0.1575879	0.81605235	0.78867414	0.074819623	0.60310247	0.86634641	0.0079006948	0.82234542	1.2654364	-0.1813604	0.80730572	1.2098258	0.16964696	0.74576444	1.2913168	0.00068946544	0.86308009	0.94151634	-0.2671995	0.59930735	0.97881185	0.21360711	1.0952821	0.9197327	-0.17222388	0.59740014	0.7575127	0.3190625
311	1.24	0.32748391	0.094746884	-0.10178577	0.9772612	0.035211355	-0.011071644	0.35794089	0.22322539	-0.13433044	0.84252662	0.058534699	0.022278163	0.38427606	0.22326753	-0.052359721	0.85763811	0.082379854	-0.065311565	0.32693861	0.28845717	-0.080584305	0.78297616	0.040992885	-0.033735859	0.71031181	0.32714822	-0.19656184	0.94057288	0.42689864	0.075085317	0.72173004	0.31473314	-0.073496528	0.89907643	0.42164003	-0.045317024	0.65762645	0.7162271	-0.17803981	0.75832274	0.75211603	0.1545498	0.74288287	0.76611937	-0.15684068	0.82132664	0.79118541	0.076217844	0.60897191	0.86914637	0.0076865685	0.82772365	1.2683328	-0.18167906	0.8132214	1.2128868	0.16940887	0.75147446	1.2943113	0.00057292622	0.86554398	0.94394422	-0.26751681	0.60750676	0.97908336	0.21457116	1.0974612	0.91673385	-0.17318798	0.61303744	0.75666845	0.31870528
